<svg width="36" height="36" viewBox="0 0 36 36" fill="none" xmlns="http://www.w3.org/2000/svg">
<mask id="mask0_40_8" style="mask-type:alpha" maskUnits="userSpaceOnUse" x="0" y="0" width="36" height="36">
<rect width="36" height="36" fill="#D9D9D9"/>
</mask>
<g mask="url(#mask0_40_8)">
<path d="M13.275 26.7375L18 23.8875L22.725 26.775L21.4875 21.375L25.65 17.775L20.175 17.2875L18 12.1875L15.825 17.25L10.35 17.7375L14.5125 21.375L13.275 26.7375ZM18 27.4125L11.775 31.1625C11.5 31.3375 11.2125 31.4125 10.9125 31.3875C10.6125 31.3625 10.35 31.2625 10.125 31.0875C9.90002 30.9125 9.72502 30.6937 9.60002 30.4312C9.47502 30.1687 9.45002 29.875 9.52502 29.55L11.175 22.4625L5.66252 17.7C5.41252 17.475 5.25627 17.2187 5.19377 16.9312C5.13127 16.6437 5.15002 16.3625 5.25002 16.0875C5.35002 15.8125 5.50002 15.5875 5.70002 15.4125C5.90002 15.2375 6.17502 15.125 6.52502 15.075L13.8 14.4375L16.6125 7.76249C16.7375 7.46249 16.9313 7.23749 17.1938 7.08749C17.4563 6.93749 17.725 6.86249 18 6.86249C18.275 6.86249 18.5438 6.93749 18.8063 7.08749C19.0688 7.23749 19.2625 7.46249 19.3875 7.76249L22.2 14.4375L29.475 15.075C29.825 15.125 30.1 15.2375 30.3 15.4125C30.5 15.5875 30.65 15.8125 30.75 16.0875C30.85 16.3625 30.8688 16.6437 30.8063 16.9312C30.7438 17.2187 30.5875 17.475 30.3375 17.7L24.825 22.4625L26.475 29.55C26.55 29.875 26.525 30.1687 26.4 30.4312C26.275 30.6937 26.1 30.9125 25.875 31.0875C25.65 31.2625 25.3875 31.3625 25.0875 31.3875C24.7875 31.4125 24.5 31.3375 24.225 31.1625L18 27.4125Z" fill="#002E51"/>
</g>
</svg>
